PathFileType	4	(X/Y/Z)	./resultDataOpenSim/trcMotMarkerGrf/sub10/qtm-03-02.trc
DataRate	CameraRate	NumFrames	NumMarkers	Units	OrigDataRate	OrigDataStartFrame	OrigNumFrames
250.000000	250.000000	15	24	m	250.000000	1	481
Frame#	Time	L.Toe.Tip			R.Toe.Tip			L.Ankle.Lat			R.Ankle.Lat			L.Ankle.Med			R.Ankle.Med			L.Heel			R.Heel			L.Knee.Lat			R.Knee.Lat			L.Knee.Med			R.Knee.Med			L.Thigh.Upper			R.Thigh.Upper			L.ASIS			R.ASIS			V.Sacral			L.Acromium			R.Acromium			C7			L.Elbow			R.Elbow			L.Wrist.Lat			R.Wrist.Lat
		X1	Y1	Z1	X2	Y2	Z2	X3	Y3	Z3	X4	Y4	Z4	X5	Y5	Z5	X6	Y6	Z6	X7	Y7	Z7	X8	Y8	Z8	X9	Y9	Z9	X10	Y10	Z10	X11	Y11	Z11	X12	Y12	Z12	X13	Y13	Z13	X14	Y14	Z14	X15	Y15	Z15	X16	Y16	Z16	X17	Y17	Z17	X18	Y18	Z18	X19	Y19	Z19	X20	Y20	Z20	X21	Y21	Z21	X22	Y22	Z22	X23	Y23	Z23	X24	Y24	Z24

1	0	-1.5054242	0.038236357	-0.12236869	-0.94769677	0.10136964	0.063424838	-1.6332916	0.064881673	-0.16217301	-1.0849481	0.06889347	0.074813873	-1.6349299	0.092512038	-0.077681873	-1.0640536	0.10555073	-0.0027200479	NaN	NaN	NaN	-1.112992	0.028381717	0.014644927	-1.4927263	0.42673726	-0.1889115	-1.1975058	0.45342089	0.10133361	-1.498534	0.40760492	-0.068714814	-1.1679047	0.4629744	-0.025217401	-1.3951094	0.81127216	-0.24701777	-1.3739992	0.82813963	0.13655875	-1.3288833	0.91748986	-0.18476844	-1.3074755	0.92539791	0.060869087	-1.509665	0.92948368	-0.024333344	-1.3335041	1.3802731	-0.21422109	-1.3742053	1.3820053	0.10879521	-1.4335121	1.421263	-0.06697235	-1.4206927	1.0412346	-0.28412905	-1.5242485	1.0611384	0.14214439	-1.2507909	0.86197733	-0.26267547	-1.4226418	0.84586558	0.20207002
2	0.004	-1.505423	0.0381774	-0.12228679	-0.93702669	0.1038548	0.064832369	-1.633083	0.065188868	-0.16205681	-1.0738654	0.069414298	0.076863908	-1.6343452	0.093030538	-0.077544001	-1.0543697	0.10618262	-0.0010442382	NaN	NaN	NaN	-1.1017497	0.028500534	0.017430183	-1.4902782	0.42621743	-0.18852659	-1.1922275	0.45226709	0.10280749	-1.4960093	0.40694557	-0.068355738	-1.1636692	0.46146825	-0.024236101	-1.3911771	0.81022525	-0.24657143	-1.3687561	0.827217	0.13714828	-1.3243636	0.91639241	-0.18445151	-1.3026436	0.92448698	0.06119487	-1.5056334	0.92855227	-0.025067463	-1.3286884	1.3790606	-0.21378525	-1.369864	1.3808415	0.10921994	-1.4290007	1.4201715	-0.066915768	-1.4158411	1.0399605	-0.28359136	-1.5205172	1.0601919	0.14184526	-1.2447312	0.86142127	-0.26188176	-1.4184908	0.84514538	0.20269494
3	0.008	-1.5054212	0.038129569	-0.12222929	-0.92649364	0.10635503	0.065961274	-1.6328872	0.065523576	-0.16193986	-1.0630271	0.06995498	0.078884368	-1.6337406	0.093567783	-0.077413829	-1.044803	0.10680802	0.00061746912	NaN	NaN	NaN	-1.090764	0.028573223	0.019953702	-1.4878309	0.4256562	-0.18817895	-1.1872427	0.45115695	0.10414112	-1.4934364	0.40630432	-0.067961739	-1.1594367	0.45998246	-0.023242415	-1.38722	0.809182	-0.2461774	-1.3635473	0.82629158	0.13773614	-1.3198638	0.91528223	-0.18414041	-1.2977587	0.92356054	0.061492602	-1.5016234	0.92767348	-0.025684212	-1.3238775	1.377866	-0.21336144	-1.3654617	1.3797001	0.10961716	-1.4244709	1.4190801	-0.066840138	-1.4107586	1.0386585	-0.28316929	-1.5167564	1.0592428	0.14155151	-1.2386923	0.86086123	-0.26109681	-1.4146343	0.84432494	0.20322737
4	0.012	-1.5054271	0.038096978	-0.12219441	-0.9161667	0.10883495	0.066729884	-1.6327486	0.065905229	-0.1618314	-1.0525722	0.070516155	0.080859147	-1.6331026	0.094136407	-0.077296255	-1.035471	0.10741274	0.0022518595	NaN	NaN	NaN	-1.0801986	0.028664918	0.022404901	-1.4853669	0.42504363	-0.18787971	-1.1825661	0.45009918	0.10532098	-1.490777	0.40567039	-0.067530791	-1.1551987	0.45853918	-0.022219268	-1.3832347	0.80813772	-0.24583973	-1.358335	0.82536994	0.13830451	-1.3154203	0.91413874	-0.18385032	-1.2928292	0.92260892	0.061746981	-1.4975884	0.9268166	-0.026126529	-1.3190658	1.3767011	-0.21294922	-1.3609846	1.3785638	0.10998806	-1.4199001	1.4179878	-0.066712809	-1.4053439	1.0373535	-0.28284009	-1.5129453	1.0582957	0.14126999	-1.2326297	0.86029943	-0.26030816	-1.4111864	0.84335921	0.20364016
5	0.016	-1.50545	0.038077264	-0.12216539	-0.90615987	0.11116318	0.067249257	-1.6327416	0.066340991	-0.16175401	-1.0425562	0.071079172	0.082783499	-1.6324271	0.09474025	-0.077193329	-1.0264698	0.10797637	0.0038463398	NaN	NaN	NaN	-1.0701396	0.028846518	0.024982959	-1.4828456	0.42440202	-0.18761744	-1.1778634	0.44912349	0.10645947	-1.4880119	0.40503174	-0.067089361	-1.1509425	0.45716167	-0.021154025	-1.3792454	0.80709203	-0.24554658	-1.3530784	0.82446458	0.13883818	-1.3110806	0.91295304	-0.18360216	-1.2878885	0.92163145	0.061955715	-1.4934533	0.92590393	-0.026424771	-1.3142442	1.3755605	-0.21253912	-1.3564646	1.3774019	0.11035725	-1.4152728	1.4169027	-0.066478905	-1.3996404	1.0360959	-0.282506	-1.5090824	1.0573636	0.14100889	-1.2264799	0.85974397	-0.25948825	-1.408009	0.84228785	0.20397859
6	0.02	-1.5054864	0.038065832	-0.12213253	-0.89663596	0.11317006	0.06768213	-1.6328582	0.066837161	-0.16169329	-1.0329815	0.071618197	0.08466367	-1.6317143	0.095379166	-0.077105545	-1.0178249	0.1084786	0.0053991441	NaN	NaN	NaN	-1.0606101	0.029112289	0.027649635	-1.4802175	0.42375952	-0.18736502	-1.1728515	0.44826712	0.10764177	-1.4851452	0.40439611	-0.066659278	-1.146648	0.455865	-0.020047794	-1.3752718	0.80605161	-0.24528849	-1.3477311	0.82358863	0.13934948	-1.3068581	0.91173191	-0.18341525	-1.2829189	0.9206354	0.062128534	-1.4892294	0.92491332	-0.026791254	-1.3093942	1.3744226	-0.21212437	-1.3519251	1.3762098	0.11074847	-1.4105921	1.4158376	-0.066129906	-1.3938004	1.0349007	-0.28212432	-1.5051721	1.0564598	0.14077482	-1.2202353	0.85919681	-0.25863433	-1.4049313	0.84118311	0.20428237
7	0.024	-1.505519	0.038058161	-0.12209703	-0.88767759	0.1147722	0.068111651	-1.6329204	0.067407952	-0.16156267	-1.0238405	0.072108608	0.086503069	-1.6309649	0.096052554	-0.077033072	-1.0095237	0.10889886	0.0069217556	NaN	NaN	NaN	-1.0516035	0.029419396	0.030341333	-1.4774553	0.42313351	-0.18708476	-1.1675921	0.44752411	0.10884213	-1.4822029	0.403772	-0.066238072	-1.1422957	0.45465414	-0.018918943	-1.3713075	0.80502463	-0.24503986	-1.3422153	0.82275663	0.13986909	-1.3026916	0.91049441	-0.18328885	-1.2778604	0.91963198	0.062277286	-1.4850524	0.92390466	-0.027646801	-1.304501	1.3732776	-0.21170644	-1.347348	1.3750164	0.11116416	-1.4058831	1.414801	-0.065738173	-1.3880205	1.0337457	-0.28172147	-1.5012166	1.055591	0.14057057	-1.2139734	0.85864999	-0.25778915	-1.4018552	0.84010304	0.2045589
8	0.028	-1.5055304	0.038050736	-0.12206319	-0.87924957	0.11599765	0.068517381	-1.6327852	0.068057991	-0.16131601	-1.015142	0.072530967	0.088294144	-1.6301789	0.096760514	-0.076976253	-1.0015705	0.10921144	0.0084315684	NaN	NaN	NaN	-1.0431144	0.029706757	0.032982957	-1.4745539	0.42253363	-0.18674983	-1.1621285	0.44689655	0.11004254	-1.4791942	0.40315737	-0.065809143	-1.1378715	0.45352964	-0.017793978	-1.3673194	0.80401864	-0.2447605	-1.3365129	0.82197029	0.14041017	-1.2984621	0.90926732	-0.18319578	-1.2726595	0.91862942	0.062406401	-1.4810459	0.92294698	-0.029298124	-1.2995684	1.3721478	-0.21128832	-1.3426852	1.3738556	0.11159184	-1.4011684	1.4137927	-0.06537566	-1.3824022	1.0326156	-0.28132195	-1.4972152	1.0547548	0.1403956	-1.2077884	0.85809688	-0.25699423	-1.3986738	0.83908113	0.20481979
9	0.032	-1.5055159	0.038042609	-0.12203208	-0.87128063	0.11689472	0.06884947	-1.6325624	0.068771325	-0.16104238	-1.0068995	0.072871185	0.090030658	-1.6293555	0.09750373	-0.07693563	-0.99399345	0.10938906	0.0099440917	NaN	NaN	NaN	-1.0351473	0.029916224	0.035479741	-1.4715217	0.42196629	-0.18636629	-1.1563424	0.4464132	0.11127184	-1.4760956	0.40255338	-0.06536292	-1.1333696	0.4524936	-0.016693613	-1.3632745	0.80304002	-0.24442195	-1.330728	0.82121057	0.14095085	-1.2940837	0.90806894	-0.18311201	-1.2673041	0.91763316	0.062519375	-1.4771398	0.92204351	-0.031403314	-1.2946137	1.3710676	-0.21086843	-1.337901	1.3727396	0.1120237	-1.3964486	1.4128086	-0.065043923	-1.3769139	1.0315149	-0.28091289	-1.4931661	1.0539453	0.14024793	-1.2017125	0.85754333	-0.25624439	-1.395259	0.83812514	0.20509391
10	0.036	-1.5054824	0.038035862	-0.12200166	-0.86372048	0.11747002	0.069099473	-1.6324182	0.069541208	-0.16083772	-0.99911482	0.073122817	0.091720799	-1.6284937	0.098283103	-0.076911836	-0.9868229	0.10941971	0.011461764	NaN	NaN	NaN	-1.0277069	0.030033315	0.037823824	-1.4683824	0.42143489	-0.18595904	-1.1503064	0.44606266	0.11250041	-1.472892	0.40197167	-0.064900284	-1.1287894	0.45155173	-0.015624235	-1.3591869	0.8020922	-0.24403556	-1.3249738	0.82046091	0.14146562	-1.2895521	0.90690369	-0.18303295	-1.2618287	0.91664747	0.062623136	-1.4730895	0.92113905	-0.033048616	-1.2896545	1.370051	-0.21044443	-1.3329985	1.371658	0.11246045	-1.3917057	1.4118494	-0.064689744	-1.3714854	1.0304471	-0.28046561	-1.4890591	1.0531504	0.14011809	-1.1957111	0.85700618	-0.25551047	-1.3914977	0.83722817	0.20541593
11	0.04	-1.5054391	0.038033169	-0.12197064	-0.85655974	0.11771076	0.069306913	-1.6323841	0.070380847	-0.16071251	-0.99178012	0.073287306	0.093387687	-1.6275926	0.099099531	-0.076905512	-0.98007492	0.10931158	0.01296516	NaN	NaN	NaN	-1.020787	0.030071395	0.040076775	-1.4651485	0.42094453	-0.18553558	-1.1442516	0.44580191	0.11365818	-1.4695961	0.40142759	-0.064419545	-1.12412	0.45071079	-0.014583281	-1.3551265	0.80117597	-0.24365235	-1.3191833	0.81974557	0.14197954	-1.2849029	0.90577452	-0.18295617	-1.2562936	0.91567611	0.062720912	-1.4687217	0.92019787	-0.033624673	-1.2847015	1.3690899	-0.21001675	-1.3280175	1.3705967	0.11290747	-1.3869219	1.4109221	-0.064267381	-1.3660753	1.0294152	-0.27996333	-1.484866	1.0523403	0.13997947	-1.1897353	0.8565027	-0.25478004	-1.3873954	0.83637109	0.20579578
12	0.044	-1.5053921	0.038035083	-0.12194088	-0.84983044	0.11762111	0.069525844	-1.6324353	0.071298249	-0.16065382	-0.984882	0.073365503	0.095057781	-1.6266514	0.099953853	-0.076917284	-0.97374284	0.10907954	0.014430521	NaN	NaN	NaN	-1.0143728	0.030032367	0.042289769	-1.4617999	0.42050522	-0.18508324	-1.138292	0.44560618	0.11471893	-1.4662187	0.4009265	-0.063915803	-1.1193432	0.44997304	-0.01357766	-1.3511571	0.80029515	-0.24331973	-1.3130073	0.81915127	0.14259724	-1.2801688	0.90468525	-0.18287274	-1.250748	0.91472459	0.062812289	-1.4640698	0.91924521	-0.033291036	-1.2797555	1.3681774	-0.20958197	-1.3230132	1.3695599	0.11337001	-1.3820949	1.4100344	-0.063778011	-1.3606745	1.0284334	-0.27941262	-1.4805566	1.0514841	0.13980328	-1.1837664	0.85604143	-0.25405426	-1.3831815	0.8355169	0.20619087
13	0.048	-1.5053431	0.038041379	-0.12191719	-0.84357118	0.11722349	0.069807069	-1.6324913	0.072295679	-0.16062738	-0.97841411	0.073350562	0.096739003	-1.6256692	0.10084687	-0.076947766	-0.96780566	0.10873672	0.015855589	NaN	NaN	NaN	-1.0084522	0.029902835	0.044473585	-1.4583331	0.42012104	-0.18460224	-1.1324147	0.44546888	0.11569242	-1.4627575	0.40045808	-0.063393457	-1.1144577	0.44933485	-0.012629284	-1.3472656	0.79946136	-0.24303235	-1.3060459	0.8187745	0.14344048	-1.2753759	0.90363351	-0.18277735	-1.2452128	0.91379848	0.062904153	-1.4592606	0.91833723	-0.032531269	-1.2747989	1.3673193	-0.2091275	-1.3180225	1.368567	0.11385024	-1.3772345	1.4091912	-0.063251292	-1.3552918	1.0275163	-0.27883584	-1.4761375	1.0505985	0.13960054	-1.1778198	0.85561989	-0.25332464	-1.3791496	0.83463935	0.20654279
14	0.052	-1.5052892	0.038055494	-0.12190647	-0.83778897	0.11654691	0.070199749	-1.6324113	0.073377083	-0.16057265	-0.97240616	0.073223409	0.098402305	-1.6246451	0.10177939	-0.076997565	-0.96225459	0.10829322	0.017255351	NaN	NaN	NaN	-1.0030231	0.029670971	0.0465984	-1.4548118	0.4197775	-0.18411772	-1.1265556	0.44539544	0.11659621	-1.4592148	0.4000157	-0.062863742	-1.1094795	0.44879457	-0.011755883	-1.3433611	0.79868852	-0.24273	-1.2984057	0.8185988	0.14449639	-1.2705442	0.90261618	-0.18267408	-1.2396946	0.91289984	0.063010256	-1.4543886	0.91752067	-0.031678261	-1.2697991	1.3665233	-0.2086392	-1.3130505	1.3676263	0.11435451	-1.3723495	1.4083922	-0.062709106	-1.3499384	1.0266698	-0.27824715	-1.4716609	1.049757	0.13943189	-1.1719153	0.85522895	-0.25257695	-1.3753822	0.83375453	0.20684058
15	0.056	-1.5052245	0.038083739	-0.12191395	-0.83246287	0.11562263	0.070732731	-1.6320992	0.074533629	-0.16045605	-0.96692936	0.072949887	0.099990319	-1.6235784	0.10275219	-0.077067289	-0.95710445	0.10775237	0.018636966	NaN	NaN	NaN	-0.99809048	0.029335852	0.048614259	-1.4513186	0.41945516	-0.18365863	-1.1206698	0.44539268	0.11744313	-1.4555913	0.39960989	-0.062335733	-1.1044116	0.44836165	-0.010957334	-1.339346	0.79798172	-0.24234603	-1.2908512	0.81846693	0.14557414	-1.2656739	0.9016368	-0.18256588	-1.2341973	0.91202985	0.06313819	-1.4494994	0.91681057	-0.0308647	-1.2647269	1.365794	-0.20810852	-1.3080919	1.3667306	0.11489431	-1.36744	1.4076327	-0.062152479	-1.3446114	1.0258977	-0.27763094	-1.4671728	1.0490226	0.139351	-1.1660642	0.8548626	-0.25181078	-1.3717703	0.83289465	0.20711382
